<svg xmlns="http://www.w3.org/2000/svg" viewBox="0 0 86.48 38.89">
	<title>株式会社ジーピーオンライン</title>
	<path d="M39.38 0a12.63 12.63 0 0 0-12.62 12.62v7.23h-6.32a5.14 5.14 0 1 0 0 5.39h5.96a10.68 10.68 0 1 1-10.33-13.38V6.47a16.08 16.08 0 1 0 16.07 16.08v-9.93a7.23 7.23 0 1 1 7.23 7.23h-4v5.39h4A12.62 12.62 0 0 0 39.38 0" fill="#b7bbbf"/>
	<path d="M43.43 12.63a4.07 4.07 0 1 1-4.06-4.07 4.06 4.06 0 0 1 4.06 4.07M60.44 5a3.22 3.22 0 1 1-3.22-3.2A3.22 3.22 0 0 1 60.44 5" fill="#b7bbbf"/>
	<path d="M39.63 38.28a5.28 5.28 0 0 1-2.53.61 3.21 3.21 0 1 1 0-6.43 3.48 3.48 0 0 1 2.41.77l-.8.81a2.29 2.29 0 0 0-1.6-.6A2.07 2.07 0 0 0 35 35.63a2.1 2.1 0 0 0 2.1 2.27 2.94 2.94 0 0 0 1.43-.32v-1.44h-1.24v-1h2.34zM41.61 32.62h2.06c1.18 0 2.25.41 2.25 1.77 0 1.54-1.15 1.82-2.45 1.82h-.77v2.53h-1.09zm1.75 2.65c.62 0 1.43 0 1.43-.86s-.72-.85-1.31-.85h-.78v1.72zM47.19 36.17h2.13v.88h-2.13zM53.89 32.46a3 3 0 0 1 3.26 3.2 3.12 3.12 0 0 1-3.26 3.22 3.21 3.21 0 1 1 0-6.43m0 5.44A2.1 2.1 0 0 0 56 35.63a2.1 2.1 0 1 0-4.21 0 2.1 2.1 0 0 0 2.1 2.27M58.88 32.62h1.44l2.96 4.54.02.02h-.02l.02-.02v-4.54h1.09v6.11h-1.38l-3.03-4.68h-.01v4.68h-1.09v-6.11zM66.44 32.62h1.09v5.13h2.6v.98h-3.69v-6.11zM71.59 32.62h1.09v6.11h-1.09zM74.71 32.62h1.44l2.96 4.54.02.02h-.02l.02-.02v-4.54h1.09v6.11h-1.38l-3.03-4.68h-.01v4.68h-1.09v-6.11zM82.28 32.62h4.05v.98h-2.97v1.5h2.81v.99h-2.81v1.66h3.12v.98h-4.2v-6.11z" fill="#6d6b6b"/>
</svg>
