<?xml version="1.0" standalone="no"?>
<!DOCTYPE svg PUBLIC "-//W3C//DTD SVG 20010904//EN"
 "http://www.w3.org/TR/2001/REC-SVG-20010904/DTD/svg10.dtd">
<svg version="1.0" xmlns="http://www.w3.org/2000/svg"
 width="236.000000pt" height="69.000000pt" viewBox="0 0 236.000000 69.000000"
 preserveAspectRatio="xMidYMid meet">

<g transform="translate(0.000000,69.000000) scale(0.100000,-0.100000)"
fill="#000000" stroke="none">
<path d="M790 648 c-86 -24 -148 -111 -135 -190 11 -62 62 -111 156 -150 87
-35 119 -59 119 -88 0 -55 -92 -68 -176 -25 l-49 25 -37 -42 c-43 -50 -42 -52
52 -96 110 -52 263 -25 316 55 45 68 38 157 -16 210 -16 16 -67 44 -112 62
-46 19 -91 41 -100 49 -24 20 -23 59 1 72 31 16 98 12 140 -10 l38 -19 32 44
31 44 -42 25 c-77 44 -146 55 -218 34z"/>
<path d="M1130 595 l0 -54 78 -3 77 -3 3 -237 2 -238 65 0 65 0 2 238 3 237
78 3 77 3 0 54 0 55 -225 0 -225 0 0 -55z"/>
<path d="M1610 645 c0 -2 38 -86 85 -186 l85 -182 0 -109 0 -109 66 3 65 3 2
105 2 105 88 183 c48 101 87 186 87 188 0 2 -31 4 -69 4 l-68 0 -48 -130 c-26
-72 -51 -130 -55 -130 -4 0 -28 58 -54 130 l-48 130 -69 0 c-38 0 -69 -2 -69
-5z"/>
<path d="M286 434 c-3 -9 -6 -24 -6 -34 0 -11 -10 -22 -22 -26 -13 -4 -25 -10
-28 -15 -3 -4 -12 -9 -19 -11 -8 -2 -23 -11 -33 -20 -10 -10 -22 -18 -28 -18
-14 0 -13 37 1 42 8 3 5 10 -6 21 -13 14 -20 15 -31 6 -10 -9 -12 -15 -4 -23
5 -5 10 -41 10 -78 0 -65 -1 -68 -23 -68 -13 0 -34 -11 -47 -25 l-24 -26 23
-6 c22 -6 23 -9 17 -64 l-7 -59 131 0 130 0 0 26 c0 41 18 64 48 64 37 0 52
-17 52 -57 0 -30 3 -33 30 -33 28 0 30 2 30 40 0 33 3 40 20 40 11 0 20 3 20
6 0 16 -23 44 -35 44 -17 0 -21 18 -30 110 -6 61 -8 65 -31 65 -16 0 -24 -6
-24 -17 0 -12 -8 -18 -24 -18 -27 0 -36 16 -36 68 0 20 -3 47 -6 60 -7 25 -39
30 -48 6z m-18 -161 c-3 -55 -6 -68 -20 -71 -14 -3 -18 3 -18 22 0 14 6 26 13
27 10 0 10 2 0 6 -26 10 -9 83 19 83 4 0 7 -30 6 -67z m-48 12 c0 -18 -5 -25
-20 -25 -25 0 -26 25 -2 39 23 14 22 14 22 -14z m-2 -57 c-5 -34 -38 -37 -38
-4 0 20 5 26 21 26 15 0 20 -5 17 -22z m172 -9 c0 -26 -3 -30 -22 -27 -17 2
-24 11 -26 31 -3 23 0 27 22 27 22 0 26 -4 26 -31z m-242 -96 c-4 -39 -28 -42
-28 -4 0 21 5 31 16 31 11 0 14 -8 12 -27z"/>
<path d="M412 428 c-17 -17 -16 -62 2 -55 7 3 18 1 23 -4 6 -6 10 1 11 20 1
35 -19 56 -36 39z"/>
</g>
</svg>
