
<svg style="position: absolute; width: 0; height: 0; overflow: hidden;" version="1.1" xmlns="http://www.w3.org/2000/svg">
	<defs>

		<symbol id="iconArrowRight" viewBox="0 0 17 11">
			<title>→</title>
			<path fill-rule="evenodd" d="M16.000,6.031 L16.000,7.000 L15.000,7.000 L15.000,6.031 L-0.000,6.031 L-0.000,5.000 L15.000,5.000 L15.000,4.000 L16.000,4.000 L16.000,5.000 L17.000,5.000 L17.000,6.031 L16.000,6.031 ZM14.000,8.000 L14.000,7.000 L15.000,7.000 L15.000,8.000 L14.000,8.000 ZM13.000,9.000 L13.000,8.000 L14.000,8.000 L14.000,9.000 L13.000,9.000 ZM12.000,10.000 L12.000,9.000 L13.000,9.000 L13.000,10.000 L12.000,10.000 ZM11.000,11.000 L11.000,10.000 L12.000,10.000 L12.000,11.000 L11.000,11.000 ZM14.000,3.000 L15.000,3.000 L15.000,4.000 L14.000,4.000 L14.000,3.000 ZM13.000,2.000 L14.000,2.000 L14.000,3.000 L13.000,3.000 L13.000,2.000 ZM12.000,1.000 L13.000,1.000 L13.000,2.000 L12.000,2.000 L12.000,1.000 ZM11.000,-0.000 L12.000,-0.000 L12.000,1.000 L11.000,1.000 L11.000,-0.000 Z"/>
		</symbol>

		<symbol id="iconArrowLeft" viewBox="0 0 17 11">
			<title>←</title>
			<path fill-rule="evenodd"  fill="rgb(29, 29, 29)"
			 d="M17.000,5.014 L17.000,6.017 L2.004,6.017 L2.004,6.989 L1.002,6.989 L1.002,6.017 L-0.000,6.017 L-0.000,5.014 L1.002,5.014 L1.002,4.011 L2.004,4.011 L2.004,5.014 L17.000,5.014 ZM3.006,7.991 L2.004,7.991 L2.004,6.989 L3.006,6.989 L3.006,7.991 ZM4.007,8.994 L3.006,8.994 L3.006,7.991 L4.007,7.991 L4.007,8.994 ZM5.009,9.997 L4.007,9.997 L4.007,8.994 L5.009,8.994 L5.009,9.997 ZM6.011,11.000 L5.009,11.000 L5.009,9.997 L6.011,9.997 L6.011,11.000 ZM3.006,3.009 L3.006,4.011 L2.004,4.011 L2.004,3.009 L3.006,3.009 ZM4.007,2.006 L4.007,3.009 L3.006,3.009 L3.006,2.006 L4.007,2.006 ZM5.009,1.003 L5.009,2.006 L4.007,2.006 L4.007,1.003 L5.009,1.003 ZM6.011,-0.000 L6.011,1.003 L5.009,1.003 L5.009,-0.000 L6.011,-0.000 Z"/>
		</symbol>

		<symbol id="iconPagetop" viewBox="0 0 13 16">
			<title>ページトップ</title>
			<path fill-rule="evenodd" d="M12.000,7.000 L12.000,6.000 L13.000,6.000 L13.000,7.000 L12.000,7.000 ZM11.000,5.000 L12.000,5.000 L12.000,6.000 L11.000,6.000 L11.000,5.000 ZM10.000,4.000 L11.000,4.000 L11.000,5.000 L10.000,5.000 L10.000,4.000 ZM9.000,3.000 L10.000,3.000 L10.000,4.000 L9.000,4.000 L9.000,3.000 ZM8.000,2.000 L9.000,2.000 L9.000,3.000 L8.000,3.000 L8.000,2.000 ZM7.000,16.000 L6.000,16.000 L6.000,2.000 L5.000,2.000 L5.000,1.000 L6.000,1.000 L6.000,-0.000 L7.000,-0.000 L7.000,1.000 L8.000,1.000 L8.000,2.000 L7.000,2.000 L7.000,16.000 ZM4.000,3.000 L4.000,2.000 L5.000,2.000 L5.000,3.000 L4.000,3.000 ZM3.000,4.000 L3.000,3.000 L4.000,3.000 L4.000,4.000 L3.000,4.000 ZM2.000,5.000 L2.000,4.000 L3.000,4.000 L3.000,5.000 L2.000,5.000 ZM2.000,5.000 L2.000,6.000 L1.000,6.000 L1.000,5.000 L2.000,5.000 ZM-0.000,7.000 L-0.000,6.000 L1.000,6.000 L1.000,7.000 L-0.000,7.000 Z"/>
		</symbol>

		<symbol id="iconFacebook" viewBox="0 0 72 72">
			<title>Facebook</title>
			<path fill="#4267b2" d="M68,0H4A4,4,0,0,0,0,4V68a4,4,0,0,0,4,4H38.46V44.16H29.11V33.26h9.35v-8c0-9.3,5.68-14.37,14-14.37a77.46,77.46,0,0,1,8.38.43V21H55.1c-4.51,0-5.39,2.15-5.39,5.3v6.94H60.5l-1.4,10.9H49.71V72H68a4,4,0,0,0,4-4V4A4,4,0,0,0,68,0Z"/><path fill="#fff" d="M49.71,72V44.16H59.1l1.4-10.9H49.71V26.32c0-3.15.88-5.3,5.39-5.3h5.72V11.3a77.46,77.46,0,0,0-8.38-.43c-8.3,0-14,5.07-14,14.37v8H29.11v10.9h9.35V72Z"/>
		</symbol>

		<symbol id="icon-instagram" viewBox="0 0 42 42">
			<title>Instagram</title>
			<path fill="#304ffe" d="M32,42H16c-5.5,0-10-4.5-10-10V16c0-5.5,4.5-10,10-10h16c5.5,0,10,4.5,10,10v16 C42,37.5,37.5,42,32,42z"/><path fill="#304ffe" fill-opacity=".29" d="M6,16v16c0,5.5,4.5,10,10,10h16c5.5,0,10-4.5,10-10V16c0-1-0.1-1.9-0.4-2.8 C36,8.7,28.8,6,21,6c-3.7,0-7.3,0.6-10.7,1.8C7.7,9.6,6,12.6,6,16z"/><path fill="#6200ea" d="M21,8c-5,0-9.6,1.2-13.8,3.2C6.4,12.7,6,14.3,6,16v16c0,5.5,4.5,10,10,10h16c5.5,0,10-4.5,10-10 V16.2C36.5,11.1,29.1,8,21,8z"/><path fill="#673ab7" d="M42,19c-5.3-5.5-12.7-9-21-9c-5.4,0-10.5,1.5-14.8,4.1C6.1,14.7,6,15.3,6,16v16c0,5.5,4.5,10,10,10 h16c5.5,0,10-4.5,10-10V19z"/><path fill="#8e24aa" d="M42,22c-4.9-6.1-12.5-10-21-10c-5.6,0-10.7,1.7-15,4.6V32c0,5.5,4.5,10,10,10h16c5.5,0,10-4.5,10-10 V22z"/><path fill="#c2185b" d="M42,32v-6.6C37.5,18.6,29.8,14,21,14c-5.6,0-10.8,1.9-15,5v13c0,5.5,4.5,10,10,10h16 C37.5,42,42,37.5,42,32z"/><path fill="#d81b60" d="M42,32v-2.4C38.4,21.6,30.4,16,21,16c-5.7,0-11,2.1-15,5.6V32c0,5.5,4.5,10,10,10h16 C37.5,42,42,37.5,42,32z"/><path fill="#f50057" d="M41.6,34.8C39.7,25.2,31.2,18,21,18c-5.9,0-11.2,2.4-15,6.3V32c0,5.5,4.5,10,10,10h16 C36.5,42,40.4,39,41.6,34.8z"/><path fill="#ff1744" d="M39.9,38C39.4,28,31.2,20,21,20c-6.1,0-11.5,2.9-15,7.4V32c0,5.5,4.5,10,10,10h16 C35.2,42,38.1,40.4,39.9,38z"/><path fill="#ff5722" d="M21,22c-6.5,0-12.1,3.6-15,9v1c0,5.5,4.5,10,10,10h16c2.2,0,4.3-0.7,5.9-2c0-0.3,0.1-0.7,0.1-1 C38,29.6,30.4,22,21,22z"/><path fill="#ff6f00" d="M21,24c-7,0-12.8,4.7-14.5,11.2c1.3,4,5.1,6.8,9.5,6.8h16c1.4,0,2.6-0.3,3.8-0.8 c0.1-0.7,0.2-1.5,0.2-2.2C36,30.7,29.3,24,21,24z"/><path fill="#ff9800" d="M21,26c-6.9,0-12.5,5.3-12.9,12c1.8,2.4,4.7,4,7.9,4h16c0.6,0,1.1-0.1,1.7-0.2 C33.9,40.9,34,40,34,39C34,31.8,28.2,26,21,26z"/><path fill="#ffc107" d="M31.6,42c0.3-1,0.4-2,0.4-3c0-6.1-4.9-11-11-11s-11,4.9-11,11c0,0.3,0,0.7,0.1,1 c1.7,1.2,3.7,2,5.9,2H31.6z"/><path fill="#ffd54f" d="M21,30c-5,0-9,4-9,9c0,0.8,0.1,1.6,0.3,2.3c1.1,0.5,2.4,0.7,3.7,0.7h13.5c0.3-0.9,0.5-1.9,0.5-3 C30,34,26,30,21,30z"/><path fill="#ffe082" d="M21,32.1c-3.9,0-7,3.1-7,7c0,1,0.2,1.9,0.6,2.8C15.1,42,15.5,42,16,42h11.4c0.4-0.9,0.6-1.9,0.6-2.9 C28,35.2,24.9,32.1,21,32.1z"/><path fill="#ffecb3" d="M21,34.1c-2.8,0-5,2.2-5,5c0,1.1,0.4,2.1,1,2.9H25c0.6-0.8,1-1.8,1-2.9C26,36.3,23.8,34.1,21,34.1z"/><path fill="#fff" d="M30,38H18c-4.4,0-8-3.6-8-8V18c0-4.4,3.6-8,8-8h12c4.4,0,8,3.6,8,8v12C38,34.4,34.4,38,30,38z M18,12c-3.3,0-6,2.7-6,6v12c0,3.3,2.7,6,6,6h12c3.3,0,6-2.7,6-6V18c0-3.3-2.7-6-6-6H18z"/><path fill="#fff" d="M24 31c-3.9 0-7-3.1-7-7 0-3.9 3.1-7 7-7 3.9 0 7 3.1 7 7C31 27.9 27.9 31 24 31zM24 19c-2.8 0-5 2.2-5 5s2.2 5 5 5 5-2.2 5-5S26.8 19 24 19zM32 16c0 .6-.4 1-1 1s-1-.4-1-1 .4-1 1-1S32 15.4 32 16z"/>
		</symbol>



	</defs>
</svg>
