<svg xmlns="http://www.w3.org/2000/svg" viewBox="0 0 125.72 17.47"><g data-name="レイヤー 2"><g data-name="レイヤー 1" fill="#aaa"><path d="M30.45 10.32h-.81v-.07c.78 0 4.06-.37 4.06-2.34a1.51 1.51 0 0 0-1.58-1.41 5.51 5.51 0 0 0-3.07 1.48c-.2.2-.22.23-.36.23a.9.9 0 0 1-.7-.85A.87.87 0 0 1 28 7c.15.2.3.4.5.4a1.31 1.31 0 0 0 .54-.2 6.23 6.23 0 0 1 3-1A2 2 0 0 1 34.29 8c0 1.32-1.36 2.32-3.84 2.32zM41.08 6.3a13.94 13.94 0 0 1-1.58.44c-.2.4-1 2.17-1.23 2.52s-.34.58-.49.58-.21 0-.21-.29a.75.75 0 0 1 .18-.46A13.08 13.08 0 0 0 39 6.85a2.86 2.86 0 0 1-.69.1c-.45 0-.83-.24-.77-.7a.8.8 0 0 0 .74.31 4.24 4.24 0 0 0 .89-.12 4.12 4.12 0 0 0 .32-1c0-.08 0-.27-.45-.37a.53.53 0 0 1 .37-.15c.3 0 .76.32.76.52s0 .08-.19.35a3.65 3.65 0 0 0-.28.48c.15-.05.41-.15.57-.22.34-.15.38-.18.47-.18s.44.11.44.25a.18.18 0 0 1-.1.18zM43 8.2a.54.54 0 0 1-.27-.08 1.1 1.1 0 0 0-.65-.19c-.8 0-.92.44-.92.79a5.87 5.87 0 0 0 .13 1.11c.61.13 1.45.45 1.45.95a.24.24 0 0 1-.21.25 2.28 2.28 0 0 1-.59-.35 2.11 2.11 0 0 0-.6-.32 1 1 0 0 1-.29.73 1.4 1.4 0 0 1-.93.32c-.63 0-1.18-.34-1.18-.82s.7-.85 1.44-.85h.4c0-.27-.05-.63-.05-.8 0-.84.81-1.17 1.34-1.27.06 0 .13 0 .13-.12s-.28-.38-1-.58a1.45 1.45 0 0 1 .49-.08A1.53 1.53 0 0 1 43.19 8a.2.2 0 0 1-.19.2zm-2.76 1.9c-.29 0-1 .06-1 .47s.49.4.75.4a.73.73 0 0 0 .83-.8 1.81 1.81 0 0 0-.59-.06zM49.65 10.81a1.27 1.27 0 0 1-.74.49c-.18 0-.21-.12-.23-.25-.05-.32-.07-.38-.57-1.1.67.46.81.51.95.51a.35.35 0 0 0 .3-.22 5 5 0 0 0 .54-2.29c0-.3 0-.83-.51-.83a2.18 2.18 0 0 0-.5.08 37.27 37.27 0 0 1-1.6 3.43c-.1.19-.27.49-.44.49s-.24-.18-.24-.36a.67.67 0 0 1 .17-.42 13 13 0 0 0 1.61-3 6.41 6.41 0 0 0-1.08.49.59.59 0 0 1-.32.14.78.78 0 0 1-.63-.7.63.63 0 0 1 .09-.31c.14.26.31.4.52.4s1.33-.36 1.58-.41a5.13 5.13 0 0 0 .34-1.2c0-.31-.45-.5-.56-.54a.64.64 0 0 1 .38-.12c.41 0 .87.35.87.54a.68.68 0 0 1-.11.31c-.17.31-.3.58-.44.91a1.81 1.81 0 0 1 .41 0c.89 0 .93.72.93 1.32a5.08 5.08 0 0 1-.72 2.64zM52.75 9a2.6 2.6 0 0 1-.42-.19 3.14 3.14 0 0 0-1-.27v-.05c.11 0 1-.08 1-.34a3.24 3.24 0 0 0-1.43-1.5c.78 0 2.13.92 2.13 1.95-.09.07-.09.4-.28.4zm-.39-2.33c-.07 0-.18-.1-.37-.25a2.69 2.69 0 0 0-1-.57 1.59 1.59 0 0 1 .31 0c.41 0 1.22.18 1.22.63a.22.22 0 0 1-.16.2zm.75-.6c-.1 0-.44-.31-.51-.36a2.68 2.68 0 0 0-.9-.41 2.26 2.26 0 0 1 .47-.05c.14 0 1.1 0 1.1.61 0 .14-.04.22-.16.22zM58.94 11.15c-.73 0-1.49-.3-1.49-.89s.53-.67.84-.67a1.28 1.28 0 0 1 1.2 1 1.39 1.39 0 0 0 1-1.35 1.16 1.16 0 0 0-1.25-1.14 3.49 3.49 0 0 0-2.59 1.62c-.19.31-.26.42-.42.42s-.23-.02-.23-.29.06-.31.52-.76A18.9 18.9 0 0 0 59 5.76s0-.08-.08-.08a4.45 4.45 0 0 0-1.09.41s-.31.17-.34.17a.75.75 0 0 1-.62-.72.34.34 0 0 1 .13-.24c.18.29.31.36.53.36a6.66 6.66 0 0 0 1.41-.31c.05 0 .31-.1.34-.1a.68.68 0 0 1 .56.53c0 .12 0 .13-.28.34a22 22 0 0 0-2 2.33 3.57 3.57 0 0 1 1.84-.55c1.23 0 1.71.73 1.71 1.43a2 2 0 0 1-2.17 1.82zm-.84-1.26a.35.35 0 0 0-.37.32c0 .4.79.57 1 .57a.72.72 0 0 0 .27 0 1.14 1.14 0 0 0-.9-.89zM70.76 7.38h-1.6v2.31a.34.34 0 0 1-.38.38c-.19 0-.19-.08-.18-.38h-1.13c0 .21 0 .56-.34.56a.2.2 0 0 1-.22-.23v-.85-1.79h-1.09v3.52h3.48l.37-.45c.05-.07.09-.1.13-.1a.21.21 0 0 1 .14.08l.51.46s.08.08.08.12-.07.08-.12.08h-4.58c0 .13 0 .49-.36.49a.24.24 0 0 1-.27-.24c0-.11.05-.64.06-.75v-3.2H65a5.18 5.18 0 0 0-.9.07l-.15-.31c.47 0 .95.05 1.18.05h.19c0-.44 0-1.21-.05-1.74a1.13 1.13 0 0 0-.12-.54l.84.24c.06 0 .12 0 .12.11s-.2.2-.28.24v1.68H67V5.27a2 2 0 0 0-.08-.47l.77.22s.11 0 .11.11-.11.16-.26.24v1.82h1.15V5.56a1.87 1.87 0 0 0-.12-.64l.86.28c.06 0 .11.05.11.11s-.1.14-.28.26V7.2h.54l.3-.43c0-.06.08-.1.12-.1a.26.26 0 0 1 .14.08l.54.44a.2.2 0 0 1 .08.11c-.1.05-.15.08-.22.08zm-2.14 0h-1.15V9.5h1.15zM79.58 9.71a5.2 5.2 0 0 1-1.67-.95.39.39 0 0 1 0 .06s0 .08-.17.17v2.42a.35.35 0 0 1-.36.36.23.23 0 0 1-.25-.27V9.8a4.48 4.48 0 0 0-.12-1.27l.55.14h.18a4.3 4.3 0 0 1-1-1.19h-.04a5.29 5.29 0 0 1-.89 1l.36.11c.09 0 .13.06.13.11s0 .11-.23.21c-.07 1.23-.31 2.45-2.4 2.71a2.53 2.53 0 0 0 1.83-2.81 6 6 0 0 1-2.43 1.13v-.06a7.26 7.26 0 0 0 3-2.36h-1.22c0 .24 0 .5-.34.5s-.26-.15-.26-.24V7v-.85a9.76 9.76 0 0 0-.08-1.34l.65.31h3.59l.15-.18s.07-.08.11-.08.08 0 .15.08l.34.24s.08.07.08.11 0 .12-.24.23v2.12a.33.33 0 0 1-.36.33c-.24 0-.23-.17-.21-.4H77a4.34 4.34 0 0 0 3.23 1.41V9a1.33 1.33 0 0 0-.65.71zM76.41 5.3h-1.57v.93h1.57zm0 1.12h-1.57v.92h1.57zm2.13-1.12h-1.63v.93h1.63zm0 1.12h-1.63v.92h1.63zM88.52 7.93a10.75 10.75 0 0 0-2.15.72 5.25 5.25 0 0 1 .08.9c0 .16 0 .67-.28.67s-.28-.44-.28-.57V8.9c-.51.32-1.09.88-1.09 1.29 0 .58 1 .58 1.22.58a6.92 6.92 0 0 0 1.17-.13h.27c.33 0 .46.2.46.34s-.14.22-.24.24a10.19 10.19 0 0 1-1.17.08c-.42 0-2 0-2-.95 0-.72.94-1.41 1.38-1.7-.07-.41-.18-.79-.66-.79a1.3 1.3 0 0 0-1 .66c-.34.53-.37.54-.5.54s-.22-.13-.22-.31a.45.45 0 0 1 .17-.42A6.84 6.84 0 0 0 85 6.6a4.14 4.14 0 0 1-.68.08c-.52 0-.77-.28-.76-.68a1 1 0 0 0 .79.28 6 6 0 0 0 .89-.09 4.06 4.06 0 0 0 .42-.87c0-.11-.17-.27-.52-.31a.58.58 0 0 1 .47-.18c.38 0 .7.28.7.44a.46.46 0 0 1-.12.27 4.84 4.84 0 0 0-.4.54 10.16 10.16 0 0 1 1.06-.35c.18 0 .41.11.41.26a.21.21 0 0 1-.16.19 9.21 9.21 0 0 1-1.63.36 15 15 0 0 0-.86 1.28 1.65 1.65 0 0 1 .78-.21.87.87 0 0 1 .93.74c.52-.31 1.27-.67 1.49-.77s.19-.12.19-.22-.06-.15-.24-.28a.48.48 0 0 1 .16 0c.28 0 .87.22.87.65-.01.14-.11.17-.27.2zM95 7.07h-1v.57c.56.14 1.06.26 1.06.68a.27.27 0 0 1-.26.29c-.23 0-.33-.21-.41-.37a1.46 1.46 0 0 0-.4-.53v3.49c0 .16 0 .5-.37.5-.2 0-.25-.11-.25-.26a2.89 2.89 0 0 1 0-.33c.1-1 .11-2.44.11-2.87v-.13a5.5 5.5 0 0 1-1.73 1.95 10.76 10.76 0 0 0 1.68-2.94h-.51a5.13 5.13 0 0 0-.9.07l-.15-.31c.48 0 .95.05 1.18.05h.45V5.59a8 8 0 0 1-1.6.14v-.07a5.93 5.93 0 0 0 2.58-1.06l.52.5s.06.05.06.1a.1.1 0 0 1-.1.1h-.24a4.84 4.84 0 0 1-.7.21v1.41h.22l.24-.3c.05-.06.08-.1.11-.1s.11.05.15.08l.39.3a.16.16 0 0 1 .08.12c-.07.04-.13.05-.21.05zm3.75 1.4l-1.46.43c0 .38.06 2.18.06 2.45a.37.37 0 0 1-.42.39c-.1 0-.22 0-.22-.25V9.06l-1.39.41a4.92 4.92 0 0 0-.84.32l-.23-.25c.5-.11 1-.24 1.14-.28l1.32-.39v-1.5c0-2.14-.06-2.32-.21-2.7l.85.24c.14 0 .15.11.15.14a.18.18 0 0 1-.07.11l-.2.11V8.7l.56-.16.29-.54c0-.08 0-.13.12-.13a.26.26 0 0 1 .13.05l.45.31c.08.06.11.08.11.12s-.07.1-.11.12zm-3-1.9c-.17 0-.26-.09-.37-.42a1.6 1.6 0 0 0-.37-.71c.5.11 1 .44 1 .86a.3.3 0 0 1-.2.27zm0 1.81c-.2 0-.22-.07-.36-.44a1.36 1.36 0 0 0-.35-.59c.54.12 1 .39 1 .76a.29.29 0 0 1-.19.27zM108.36 9.46h-3.14v1.32c0 .46-.23.83-.92.95 0-.28-.16-.47-.76-.77v-.06h.76c.34 0 .41 0 .41-.29V9.46h-2.15a5.46 5.46 0 0 0-.9.07l-.15-.31c.52 0 1.06.05 1.17.05h2a2.27 2.27 0 0 0-.13-.9l.57.16.7-.77h-1.93a5.33 5.33 0 0 0-.89.07l-.15-.31c.5 0 1 .05 1.17.05h1.87l.29-.24c.07-.05.11-.08.15-.08s.08 0 .14.08l.44.42a.17.17 0 0 1 0 .11c0 .1-.12.14-.26.14h-.34a4.93 4.93 0 0 1-.64.34l-.43.22a.1.1 0 0 1 .07.09c0 .05-.05.12-.14.21v.4h2l.34-.38c.08-.08.11-.11.15-.11s.09 0 .18.11l.47.37a.2.2 0 0 1 .08.11s.05.1-.03.1zm-.06-2.52a1.83 1.83 0 0 1-.44.08l-.35.31a4.11 4.11 0 0 1-.4.28h-.05a3.61 3.61 0 0 0 .28-.92h-4.69c0 .52-.23 1.35-.76 1.35a.29.29 0 0 1-.31-.3c0-.19.08-.27.42-.61a1.71 1.71 0 0 0 .51-1h.05a1.12 1.12 0 0 1 .07.33h3.1a5.27 5.27 0 0 0 .61-1.35 1 1 0 0 0 0-.41l.75.37c.06 0 .1.06.1.11s0 .08-.09.11l-.25.07a7.9 7.9 0 0 1-1 1.11h1.42l.23-.21c.07-.06.11-.08.14-.08a.19.19 0 0 1 .14.08l.47.41s.08.08.08.13a.13.13 0 0 1-.03.13zm-4.81-.76c-.21 0-.28-.15-.37-.43a1.73 1.73 0 0 0-.49-.83c.58.13 1.15.54 1.15 1a.3.3 0 0 1-.29.26zm1.51-.09c-.22 0-.27-.13-.4-.48a2.11 2.11 0 0 0-.49-.79c.67.18 1.16.63 1.16 1a.31.31 0 0 1-.27.27zM117.65 6.82c-.25 0-.66-.09-.91-.11s-.53 0-.72 0h-.92v1.08a2.26 2.26 0 0 1 .34 1.21 2.93 2.93 0 0 1-2.15 2.73v-.05a3.22 3.22 0 0 0 1.55-2.18.84.84 0 0 1-.5.25 1.11 1.11 0 0 1-.86-1.16 1 1 0 0 1 .89-1.11 1.35 1.35 0 0 1 .44.09v-.83a8.06 8.06 0 0 0-2.49.63c-.22.11-.24.13-.31.13-.26 0-.63-.47-.63-.79a.41.41 0 0 1 .06-.21.7.7 0 0 0 .56.36c.08 0 .69-.11 1-.16.72-.12 1.28-.21 1.77-.25-.05-1.22-.05-1.25-.69-1.48a.71.71 0 0 1 .44-.18c.2 0 .77.21.77.45 0 0-.05.24-.07.3a6.9 6.9 0 0 0-.1.87l2.15-.19c.26 0 .63.18.63.39a.22.22 0 0 1-.25.21zm-3.42 1a.64.64 0 0 0-.51.7.76.76 0 0 0 .62.79c.25 0 .46-.28.46-.72-.01-.19-.04-.77-.58-.77zM123.55 11.15c-.73 0-1.49-.3-1.49-.89s.53-.67.84-.67a1.28 1.28 0 0 1 1.2 1 1.39 1.39 0 0 0 1-1.35 1.16 1.16 0 0 0-1.25-1.14 3.48 3.48 0 0 0-2.59 1.62c-.19.31-.26.42-.42.42s-.26-.05-.26-.32.06-.31.52-.76a18.88 18.88 0 0 0 2.49-3.33s0-.08-.08-.08a4.44 4.44 0 0 0-1.09.41s-.31.17-.34.17a.75.75 0 0 1-.62-.72.34.34 0 0 1 .08-.25c.18.29.31.36.53.36a6.66 6.66 0 0 0 1.41-.31c.05 0 .31-.1.34-.1a.68.68 0 0 1 .56.53c0 .12 0 .13-.28.34a22 22 0 0 0-2 2.33 3.57 3.57 0 0 1 1.9-.51c1.23 0 1.71.73 1.71 1.43a2 2 0 0 1-2.16 1.82zm-.83-1.25a.35.35 0 0 0-.37.32c0 .4.79.57 1 .57a.72.72 0 0 0 .27 0 1.14 1.14 0 0 0-.9-.9zM3.65 14.56L.8 11.47.4 8.23l2.5-4.61 7.26-2.9 6.92 1.61 3.5 4.33-1.17 3.7-3.92-.36-1.21 3.23-5.4-.64zM.9 11.43l2.77 3 5.2-2 5.33.64 1.21-3.23 3.89.42 1.18-3.56L17 2.42 10.16.83 3 3.7.5 8.25z"/><path d="M.89 11.49l-.07-.08 4.33-3.45.07.08-4.33 3.45z"/><path d="M.454 8.186l4.734-.244.005.1-4.734.244z"/><path d="M5.19 8.11l-2.3-4.42.09-.05 2.2 4.24 1.4-3.28.1.04-1.49 3.47z"/><path d="M6.62 4.67l-3.7-.96.03-.1 3.69.97-.02.09z"/><path d="M6.59 4.592L10.125.738l.074.067L6.664 4.66z"/><path d="M10.114.774l.099-.014.56 4.011-.098.014z"/><path d="M10.72 4.84l-4.09-.17v-.1l4.09.16v.11z"/><path d="M10.78 8.62l-5.6-.58.01-.1 5.31.55-3.91-3.83.08-.07 4.11 4.03z"/><path d="M3.71 14.51l-.1-.02 1.55-6.61 3.76 4.58-.08.06-3.63-4.41-1.5 6.4z"/><path d="M14.21 13.16l-3.56-4.51-1.73 3.86-.09-.04 1.8-4.01 3.66 4.64-.08.06z"/><path d="M10.59 8.64l.08-3.92h.06l5.36 1.15zm.18-3.79l-.08 3.63 5.09-2.55z"/><path d="M15.5 9.96l-4.87-1.35.03-.1 4.75 1.32.48-3.93.1.01-.49 4.05z"/><path d="M19.35 10.35L15.9 5.94l.08-.06 3.45 4.41-.08.06z"/><path d="M15.96 6L10.13.81l.07-.08 5.71 5.09 1.1-3.46.1.03L15.96 6z"/><path d="M20.53 6.74l-4.6-.78.02-.1 4.6.78-.02.1zM6.832 17.437l2-4.962.093.037-2 4.962zM10.16 1.55a.77.77 0 1 1 .77-.77.77.77 0 0 1-.77.77m0-1.44a.67.67 0 1 0 .67.67.67.67 0 0 0-.67-.68M17.46 2.38a.4.4 0 1 1-.4-.4.4.4 0 0 1 .4.4"/><path d="M17.06 2.83a.45.45 0 1 1 .45-.45.45.45 0 0 1-.45.45m0-.8a.35.35 0 1 0 .35.35.35.35 0 0 0-.35-.38M20.54 7.46a.77.77 0 1 1 .77-.77.77.77 0 0 1-.77.77m0-1.44a.67.67 0 1 0 .67.67.67.67 0 0 0-.67-.69M19.79 10.32a.4.4 0 1 1-.4-.4.4.4 0 0 1 .4.4"/><path d="M19.39 10.77a.45.45 0 1 1 .45-.45.45.45 0 0 1-.45.45m0-.8a.35.35 0 1 0 .35.35.35.35 0 0 0-.35-.35M15.46 10.67a.77.77 0 1 1 .77-.77.77.77 0 0 1-.77.77m0-1.44a.67.67 0 1 0 .67.67.67.67 0 0 0-.67-.67M14.65 13.13a.4.4 0 1 1-.4-.4.4.4 0 0 1 .4.4"/><path d="M14.25 13.58a.45.45 0 1 1 .45-.45.45.45 0 0 1-.45.45m0-.8a.35.35 0 1 0 .35.35.35.35 0 0 0-.35-.35M8.88 13.26a.77.77 0 1 1 .77-.77.77.77 0 0 1-.77.77m0-1.44a.67.67 0 1 0 .67.67.67.67 0 0 0-.67-.67M4.06 14.5a.4.4 0 1 1-.4-.4.4.4 0 0 1 .4.4"/><path d="M3.66 15a.45.45 0 1 1 .45-.45.45.45 0 0 1-.45.45m0-.8a.35.35 0 1 0 .34.3.35.35 0 0 0-.35-.35M.85 12.22a.77.77 0 1 1 .77-.77.77.77 0 0 1-.77.77m0-1.44a.67.67 0 1 0 .67.67.67.67 0 0 0-.67-.67M.85 8.24a.4.4 0 1 1-.4-.4.4.4 0 0 1 .4.4"/><path d="M.45 8.69a.45.45 0 1 1 .45-.46.45.45 0 0 1-.45.45m0-.8a.35.35 0 1 0 .35.35.35.35 0 0 0-.35-.35M2.94 4.43a.77.77 0 1 1 .77-.77.77.77 0 0 1-.77.77m0-1.43a.67.67 0 1 0 .67.67.67.67 0 0 0-.67-.67M6.63 5.4a.77.77 0 1 1 .77-.77.77.77 0 0 1-.77.77m0-1.4a.67.67 0 1 0 .67.67.67.67 0 0 0-.67-.67M5.19 9.25A1.25 1.25 0 1 1 6.44 8a1.26 1.26 0 0 1-1.25 1.25m0-2.41A1.15 1.15 0 1 0 6.34 8a1.15 1.15 0 0 0-1.15-1.16M10.64 9.33a.77.77 0 1 1 .77-.77.77.77 0 0 1-.77.77m0-1.44a.67.67 0 1 0 .67.67.67.67 0 0 0-.67-.67M11.12 4.79a.4.4 0 1 1-.4-.4.4.4 0 0 1 .4.4"/><path d="M10.72 5.24a.45.45 0 1 1 .45-.45.45.45 0 0 1-.45.45m0-.8a.35.35 0 1 0 .35.35.35.35 0 0 0-.35-.35M15.94 6.87a1 1 0 1 1 1-1 1 1 0 0 1-1 1m0-1.83a.86.86 0 1 0 .86.86.86.86 0 0 0-.86-.9"/></g></g></svg>