<svg id="レイヤー_1" data-name="レイヤー 1" xmlns="http://www.w3.org/2000/svg" xmlns:xlink="http://www.w3.org/1999/xlink" viewBox="0 0 510 510"><defs><clipPath id="clip-path" transform="translate(0 0)"><rect width="510" height="510" style="fill:none"/></clipPath></defs><title>ベクトルスマートオブジェクト</title><g style="clip-path:url(#clip-path)"><path d="M150.45,206.55l-35.7,35.7L229.5,357l255-255L448.8,66.3,229.5,285.6ZM459,255c0,112.2-91.8,204-204,204S51,367.2,51,255,142.8,51,255,51a198.86,198.86,0,0,1,56.1,7.65l40.8-40.8C321.3,7.65,288.15,0,255,0,114.75,0,0,114.75,0,255S114.75,510,255,510,510,395.25,510,255Z" transform="translate(0 0)" style="fill:#ececec"/></g></svg>