<svg id="レイヤー_1" data-name="レイヤー 1" xmlns="http://www.w3.org/2000/svg" xmlns:xlink="http://www.w3.org/1999/xlink" viewBox="0 0 480 456"><defs><clipPath id="clip-path" transform="translate(-10 -22)"><rect x="10" y="22" width="480" height="456" style="fill:none"/></clipPath></defs><title>ベクトルスマートオブジェクト</title><g style="clip-path:url(#clip-path)"><path d="M450,22H50A40,40,0,0,0,10,62V334a40,40,0,0,0,40,40H338V358H50a24,24,0,0,1-24-24V62A24,24,0,0,1,50,38H450a24,24,0,0,1,24,24V334a24,24,0,0,1-24,24H386v16h64a40,40,0,0,0,40-40V62a40,40,0,0,0-40-40" transform="translate(-10 -22)"/><path d="M418,54H50a8,8,0,0,0-8,8V334a8,8,0,0,0,8,8H338V326H58V70H410V326H386v16h32a8,8,0,0,0,8-8V62a8,8,0,0,0-8-8" transform="translate(-10 -22)"/><rect x="432" y="136" width="16" height="80"/><path d="M466,430H98a8,8,0,0,0-3.58.8l-32,16a8,8,0,0,0,0,14.32l32,16A8,8,0,0,0,98,478H466a24,24,0,1,0,0-48m-48,32H99.89l-16-8,16-8H418Zm48,0H434V446h32a8,8,0,1,1,0,16" transform="translate(-10 -22)"/><path d="M378,230H354V206a8,8,0,0,0-8-8H274v-8a8,8,0,0,0-8-8H242V158a8,8,0,0,0-8-8H186V134h32a8,8,0,0,0,8-8V94a8,8,0,0,0-8-8H138a8,8,0,0,0-8,8v32a8,8,0,0,0,8,8h32v16H114a8,8,0,0,0-8,8v24H82a8,8,0,0,0-8,8v32a8,8,0,0,0,8,8h64a8,8,0,0,0,8-8V190a8,8,0,0,0-8-8H122V166H226v16H202a8,8,0,0,0-8,8v32a8,8,0,0,0,8,8h24v24H202a8,8,0,0,0-8,8v32a8,8,0,0,0,8,8h64a8,8,0,0,0,8-8V262a8,8,0,0,0-8-8H242V230h24a8,8,0,0,0,8-8v-8h64v16H314a8,8,0,0,0-8,8v32a8,8,0,0,0,8,8h64a8,8,0,0,0,8-8V238a8,8,0,0,0-8-8M138,214H90V198h48Zm8-112h64v16H146ZM258,286H210V270h48Zm0-72H210V198h48Zm112,48H322V246h48Z" transform="translate(-10 -22)"/><path d="M10,446v8a8,8,0,0,0,8,8h8V446Z" transform="translate(-10 -22)"/><path d="M349.16,375a32.12,32.12,0,0,1-8.57,9.1l9.31,13a48,48,0,0,0,12.8-13.6Z" transform="translate(-10 -22)"/><path d="M354,349.13V358a32.33,32.33,0,0,1-.46,5.41l15.78,2.65A48.66,48.66,0,0,0,370,358v-8.87Z" transform="translate(-10 -22)"/><rect x="274.24" y="368" width="15.63" height="16"/><path d="M329.29,389.2a32.14,32.14,0,0,1-7.29.8h-6.46v16H322a47.89,47.89,0,0,0,10.91-1.25Z" transform="translate(-10 -22)"/><path d="M48.14,391A47.68,47.68,0,0,0,31,398.33l9,13.22a31.59,31.59,0,0,1,11.42-4.87Z" transform="translate(-10 -22)"/><path d="M17.91,411.6a47.7,47.7,0,0,0-7.06,17.28l15.72,3a31.5,31.5,0,0,1,4.68-11.5Z" transform="translate(-10 -22)"/><rect x="211.72" y="368" width="15.64" height="16"/><rect x="243" y="368" width="15.63" height="16"/><rect x="117.9" y="368" width="15.64" height="16"/><rect x="86.62" y="368" width="15.64" height="16"/><rect x="344" y="295.85" width="16" height="15.64"/><rect x="55.35" y="368" width="15.63" height="16"/><rect x="149.17" y="368" width="15.64" height="16"/><rect x="180.45" y="368" width="15.64" height="16"/><rect x="344" y="264" width="16" height="16"/></g></svg>