<svg id="レイヤー_1" data-name="レイヤー 1" xmlns="http://www.w3.org/2000/svg" xmlns:xlink="http://www.w3.org/1999/xlink" viewBox="0 0 482.11 482.11"><defs><clipPath id="clip-path" transform="translate(-8.94 -8.94)"><rect x="8.94" y="8.94" width="482.11" height="482.11" style="fill:none"/></clipPath></defs><title>ベクトルスマートオブジェクト3</title><g style="clip-path:url(#clip-path)"><path d="M484.19,339.37h0v0l-31.11-4.44a8,8,0,0,1-3.67-14.33l10.2-7.63h21.34a8,8,0,0,0,8-8v-288a8,8,0,0,0-8-8h-464a8,8,0,0,0-8,8v288a8,8,0,0,0,8,8H37.63L27.29,323.29a8,8,0,0,0-.93,10.19l15.2,22.11-26.3,5.52a8,8,0,0,0-6.32,7.83v32a8,8,0,0,0,6.35,7.83l26.3,5.53-15.2,22.1a8,8,0,0,0,.93,10.19l24,24a8,8,0,0,0,10.19.93l22.1-15.2,5.53,26.3a8,8,0,0,0,7.8,6.32h32a8,8,0,0,0,7.83-6.35l5.53-26.3,22.1,15.24a8,8,0,0,0,10.19-.93l24-24a8,8,0,0,0,.93-10.19l-15.2-22.11,26.3-5.52a8,8,0,0,0,6.32-7.83v-32a8,8,0,0,0-6.35-7.83l-26.3-5.53,15.2-22.1a8,8,0,0,0-.93-10.19l-10.31-10.34h33l-6.4,44.52a8,8,0,0,0,6.77,9.07h.1L252.85,371a8,8,0,0,1,3.67,14.33l-25.18,18.83a8,8,0,0,0-1.6,11.2l28.8,38.4a8,8,0,0,0,11.2,1.6l25.14-18.86A8,8,0,0,1,307.61,444l-4.45,31.11a8,8,0,0,0,6.78,9.05h0L357.46,491a7.74,7.74,0,0,0,1.14.09,8,8,0,0,0,7.92-6.87L371,453.07a8,8,0,0,1,14.32-3.67l18.86,25.14a8,8,0,0,0,11.2,1.6l38.4-28.8a8,8,0,0,0,1.6-11.2L436.48,411A8,8,0,0,1,444,398.28l31.11,4.44a8,8,0,0,0,9.06-6.78h0L491,348.42a8,8,0,0,0-6.78-9.06M200.94,375.44v19L181,398.64a16,16,0,0,0-9.88,24.74L182.54,440,168,454.54l-16.62-11.46A16,16,0,0,0,126.65,453l-4.2,20h-19L99.24,453a16,16,0,0,0-24.7-9.89L57.89,454.54,43.34,440,54.8,423.38a16,16,0,0,0-9.88-24.74l-20-4.19v-19l19.94-4.19a16,16,0,0,0,9.88-24.7L43.34,329.89l14.54-14.54,16.66,11.42a16,16,0,0,0,24.74-9.88l4.16-19.94h19l4.2,19.94a16,16,0,0,0,24.74,9.89L168,315.34l14.54,14.54-11.42,16.66A16,16,0,0,0,181,371.29ZM147.08,310.3l-4.8,3.3-5.53-26.3a8,8,0,0,0-7.81-6.35h-16v-56h32v80a7.91,7.91,0,0,0,2.14,5.35m37.86-133.35a8,8,0,0,0-8,8v112h-16v-80a8,8,0,0,0-8-8h-48a8,8,0,0,0-8,8v64a8,8,0,0,0-7.83,6.35l-5.53,26.3-22.1-15.24A7.84,7.84,0,0,0,56.94,297v-.09h-32v-272h448V286.28l-25.6-34.14a8,8,0,0,0-11.2-1.6L411,269.41a8,8,0,0,1-12.72-7.54l4.45-31.11a7.9,7.9,0,0,0-1.78-6.17V80.94a8,8,0,0,0-8-8h-48a8,8,0,0,0-8,8V238.66l-2,14.16a7.94,7.94,0,0,1-14,4V120.94a8,8,0,0,0-8-8h-48a8,8,0,0,0-8,8v134l-4.8,3.6a8,8,0,0,0-1.6,11.2l18.86,25.14a8,8,0,0,1-7.54,12.72l-20.93-3V184.94a8,8,0,0,0-8-8Zm200-88v131.2l-32-4.58V88.94Zm-80,40V235.62l-3.2-4.27a8,8,0,0,0-11.2-1.6l-17.6,13.2v-114Zm-80,168h-32v-104h32Zm244.53,88.8-23.2-3.31a24,24,0,0,0-22.59,38.16l14.06,18.75-25.6,19.2L398.09,439.8a24,24,0,0,0-43,11L351.81,474l-31.66-4.53,3.31-23.2a24,24,0,0,0-38.15-22.59l-18.76,14.06-19.2-25.6,18.74-14.06a24,24,0,0,0-11-43l-23.2-3.32,4.53-31.67,23.2,3.31a24,24,0,0,0,22.59-38.16l-14.06-18.74,25.6-19.2,14.06,18.74a24,24,0,0,0,43-11l3.31-23.2,31.67,4.53-3.31,23.2a24,24,0,0,0,38.15,22.59l18.75-14.06,19.2,25.6L439.81,307.8a24,24,0,0,0,11,43l23.2,3.32Z" transform="translate(-8.94 -8.94)"/><path d="M112.94,336.94a48,48,0,1,0,48,48,48,48,0,0,0-48-48m0,80a32,32,0,1,1,32-32,32,32,0,0,1-32,32" transform="translate(-8.94 -8.94)"/><path d="M352.94,288.94a64,64,0,1,0,64,64,64,64,0,0,0-64-64m0,112a48,48,0,1,1,48-48,48,48,0,0,1-48,48" transform="translate(-8.94 -8.94)"/><path d="M330.54,41.1l-40-8-3.2,15.68,19.39,3.89L92.9,178l8.1,13.81,216.61-127-4.5,22.47,15.68,3.14,8-40a8,8,0,0,0-6.24-9.38" transform="translate(-8.94 -8.94)"/><rect x="32" y="216" width="16" height="56"/><rect x="32" y="184" width="16" height="16"/><rect x="432" y="104" width="16" height="120"/><rect x="432" y="72" width="16" height="16"/><rect x="184" y="456" width="16" height="16"/><rect x="216" y="456" width="16" height="16"/><rect x="248" y="456" width="16" height="16"/></g></svg>