<?xml version="1.0" encoding="utf-8"?>
<!-- Generator: Adobe Illustrator 21.1.0, SVG Export Plug-In . SVG Version: 6.00 Build 0)  -->
<svg version="1.1" id="レイヤー_1" xmlns="http://www.w3.org/2000/svg" xmlns:xlink="http://www.w3.org/1999/xlink" x="0px"
	 y="0px" viewBox="0 0 482.1 482.1" style="enable-background:new 0 0 482.1 482.1;" xml:space="preserve">
<style type="text/css">
	.st0{display:none;}
	.st1{display:inline;}
	.st2{display:inline;clip-path:url(#SVGID_2_);}
</style>
<title>ベクトルスマートオブジェクト3</title>
<g class="st0">
	<defs>
		<rect id="SVGID_1_" width="482.1" height="482.1"/>
	</defs>
	<clipPath id="SVGID_2_" class="st1">
		<use xlink:href="#SVGID_1_"  style="overflow:visible;"/>
	</clipPath>
	<g class="st2">
		<path d="M475.3,330.4L475.3,330.4L475.3,330.4l-31.1-4.4c-4.4-0.6-7.4-4.7-6.8-9c0.3-2.1,1.4-4,3.1-5.3l10.2-7.6H472
			c4.4,0,8-3.6,8-8V8c0-4.4-3.6-8-8-8H8C3.6,0,0,3.6,0,8v288c0,4.4,3.6,8,8,8h20.7l-10.3,10.3c-2.7,2.7-3.1,7-0.9,10.2l15.2,22.1
			l-26.3,5.5C2.6,353,0,356.2,0,360v32c0,3.8,2.6,7,6.4,7.8l26.3,5.5l-15.2,22.1c-2.2,3.2-1.8,7.5,0.9,10.2l24,24
			c2.7,2.7,7,3.1,10.2,0.9l22.1-15.2l5.5,26.3c0.8,3.7,4,6.3,7.8,6.3h32c3.8,0,7-2.6,7.8-6.4l5.5-26.3l22.1,15.2
			c3.2,2.2,7.5,1.8,10.2-0.9l24-24c2.7-2.7,3.1-7,0.9-10.2l-15.2-22.1l26.3-5.5c3.7-0.8,6.3-4.1,6.3-7.8v-32c0-3.8-2.6-7-6.4-7.8
			l-26.3-5.5l15.2-22.1c2.2-3.2,1.8-7.5-0.9-10.2L179.3,304h33l-6.4,44.5c-0.6,4.4,2.4,8.4,6.8,9.1c0,0,0,0,0,0h0.1l31.1,4.4
			c4.4,0.6,7.4,4.7,6.8,9c-0.3,2.1-1.4,4-3.1,5.3l-25.2,18.8c-3.5,2.7-4.3,7.7-1.6,11.2c0,0,0,0,0,0l28.8,38.4
			c2.7,3.5,7.7,4.3,11.2,1.6l0,0l25.1-18.9c3.5-2.7,8.5-1.9,11.2,1.6c1.3,1.7,1.8,3.8,1.5,5.9l-4.5,31.1c-0.6,4.4,2.4,8.4,6.8,9l0,0
			l47.5,6.8c0.4,0.1,0.8,0.1,1.1,0.1c4,0,7.4-2.9,7.9-6.9l4.5-31.1c0.6-4.4,4.7-7.4,9-6.8c2.1,0.3,4,1.4,5.3,3.1l18.9,25.1
			c2.7,3.5,7.7,4.3,11.2,1.6l0,0l38.4-28.8c3.5-2.7,4.3-7.7,1.6-11.2l0,0l-18.9-25.1c-2.7-3.5-1.9-8.5,1.6-11.2
			c1.7-1.3,3.8-1.8,5.9-1.5l31.1,4.4c4.4,0.6,8.4-2.4,9.1-6.8c0,0,0,0,0,0l0,0l6.8-47.5C482.7,335.1,479.7,331.1,475.3,330.4
			C475.3,330.4,475.3,330.4,475.3,330.4 M192,366.5v19l-19.9,4.2c-8.6,1.8-14.2,10.3-12.4,18.9c0.4,2.1,1.3,4,2.5,5.8l11.4,16.6
			l-14.5,14.5l-16.6-11.5c-7.3-5-17.2-3.2-22.2,4.1c-1.2,1.8-2,3.7-2.5,5.8l-4.2,20h-19l-4.2-20c-1.8-8.6-10.3-14.2-19-12.3
			c-2.1,0.4-4,1.3-5.7,2.5L49,445.6l-14.5-14.5l11.5-16.6c5-7.3,3.2-17.2-4.1-22.3c-1.7-1.2-3.7-2-5.8-2.5l-20-4.2v-19l19.9-4.2
			c8.6-1.8,14.2-10.3,12.3-19c-0.4-2.1-1.3-4-2.5-5.7L34.4,321l14.5-14.5l16.7,11.4c7.3,5,17.2,3.2,22.3-4.1c1.2-1.7,2-3.7,2.5-5.8
			l4.2-19.9h19l4.2,19.9c1.8,8.6,10.3,14.2,18.9,12.4c2.1-0.4,4-1.3,5.8-2.5l16.6-11.4l14.5,14.5l-11.4,16.7
			c-5,7.3-3.2,17.2,4.1,22.3c1.8,1.2,3.7,2.1,5.8,2.5L192,366.5z M138.1,301.4l-4.8,3.3l-5.5-26.3c-0.8-3.7-4-6.3-7.8-6.4h-16v-56
			h32v80C136,298,136.8,299.9,138.1,301.4 M176,168c-4.4,0-8,3.6-8,8v112h-16v-80c0-4.4-3.6-8-8-8H96c-4.4,0-8,3.6-8,8v64
			c-3.8,0-7,2.6-7.8,6.4l-5.5,26.3l-22.1-15.2c-1.3-0.9-2.9-1.4-4.5-1.4V288H16V16h448v261.4l-25.6-34.1c-2.7-3.5-7.7-4.3-11.2-1.6
			c0,0,0,0,0,0l-25.1,18.9c-3.5,2.7-8.5,1.9-11.2-1.6c-1.3-1.7-1.8-3.8-1.5-5.9l4.5-31.1c0.3-2.2-0.3-4.5-1.8-6.2V72
			c0-4.4-3.6-8-8-8h-48c-4.4,0-8,3.6-8,8v157.7l-2,14.2c-0.6,4.3-4.6,7.4-8.9,6.8c-2-0.3-3.8-1.3-5.1-2.8V112c0-4.4-3.6-8-8-8h-48
			c-4.4,0-8,3.6-8,8v134l-4.8,3.6c-3.5,2.7-4.3,7.7-1.6,11.2c0,0,0,0,0,0l18.9,25.1c2.7,3.5,1.9,8.5-1.6,11.2
			c-1.7,1.3-3.8,1.8-5.9,1.5l-20.9-3V176c0-4.4-3.6-8-8-8L176,168z M376,80v131.2l-32-4.6V80L376,80z M296,120v106.7l-3.2-4.3
			c-2.7-3.5-7.7-4.3-11.2-1.6c0,0,0,0,0,0L264,234V120H296z M216,288h-32V184h32V288z M460.5,376.8l-23.2-3.3
			c-13.1-1.9-25.3,7.2-27.1,20.4c-0.9,6.3,0.7,12.7,4.6,17.8l14.1,18.8l-25.6,19.2l-14-18.8c-7.9-10.6-23-12.8-33.6-4.9
			c-5.1,3.8-8.5,9.5-9.4,15.9l-3.3,23.2l-31.7-4.5l3.3-23.2c1.9-13.1-7.3-25.3-20.4-27.1c-6.3-0.9-12.7,0.7-17.8,4.6l-18.8,14.1
			l-19.2-25.6l18.7-14.1c10.6-7.9,12.8-23,4.9-33.6c-3.8-5.1-9.5-8.5-15.9-9.4l-23.2-3.3l4.5-31.7l23.2,3.3
			c13.1,1.9,25.3-7.2,27.1-20.4c0.9-6.3-0.7-12.7-4.6-17.8l-14.1-18.7l25.6-19.2l14.1,18.7c7.9,10.6,23,12.8,33.6,4.9
			c5.1-3.8,8.5-9.5,9.4-15.9l3.3-23.2l31.7,4.5l-3.3,23.2c-1.9,13.1,7.3,25.3,20.4,27.1c6.3,0.9,12.7-0.7,17.8-4.6l18.8-14.1
			l19.2,25.6l-18.8,14.1c-10.6,7.9-12.8,23-4.9,33.6c3.8,5.1,9.5,8.5,15.9,9.4l23.2,3.3L460.5,376.8z"/>
		<path d="M104,328c-26.5,0-48,21.5-48,48s21.5,48,48,48s48-21.5,48-48S130.5,328,104,328 M104,408c-17.7,0-32-14.3-32-32
			s14.3-32,32-32s32,14.3,32,32S121.7,408,104,408"/>
		<path d="M344,280c-35.3,0-64,28.7-64,64s28.7,64,64,64s64-28.7,64-64S379.3,280,344,280 M344,392c-26.5,0-48-21.5-48-48
			s21.5-48,48-48s48,21.5,48,48S370.5,392,344,392"/>
		<path d="M321.6,32.2l-40-8l-3.2,15.7l19.4,3.9L84,169.1l8.1,13.8l216.6-127l-4.5,22.5l15.7,3.1l8-40
			C328.7,37.2,325.9,33,321.6,32.2"/>
		<rect x="32" y="216" width="16" height="56"/>
		<rect x="32" y="184" width="16" height="16"/>
		<rect x="432" y="104" width="16" height="120"/>
		<rect x="432" y="72" width="16" height="16"/>
		<rect x="184" y="456" width="16" height="16"/>
		<rect x="216" y="456" width="16" height="16"/>
		<rect x="248" y="456" width="16" height="16"/>
	</g>
</g>
<g>
	<path d="M240.8,0.7C108.3,0.7,0.5,108.5,0.5,241c0,96,57,182.6,145.1,220.7c5.5,2.4,11.9-0.2,14.3-5.7c2.4-5.5-0.2-11.9-5.7-14.3
		c-80.2-34.6-132-113.4-132-200.8c0-120.5,98.1-218.6,218.6-218.6c120.5,0,218.6,98.1,218.6,218.6c0,87.3-51.8,166.1-132,200.8
		c-5.5,2.4-8,8.8-5.7,14.3c1.8,4.1,5.8,6.6,10,6.6c1.4,0,2.9-0.3,4.3-0.9C424.2,423.6,481.2,337,481.2,241
		C481.2,108.5,373.4,0.7,240.8,0.7z"/>
	<path d="M251.7,341.7v-81.9c6.5-3.8,10.9-10.8,10.9-18.8c0-12-9.8-21.7-21.7-21.7c-12,0-21.7,9.8-21.7,21.7c0,8,4.4,15,10.9,18.8
		v81.9l-39.4,39.4c-2,2-3.2,4.8-3.2,7.7v81.6c0,4.4,2.6,8.4,6.7,10c4.1,1.7,8.7,0.8,11.8-2.4l34.9-34.9l34.9,34.9
		c2.1,2.1,4.9,3.2,7.7,3.2c1.4,0,2.8-0.3,4.2-0.8c4.1-1.7,6.7-5.6,6.7-10v-81.6c0-2.9-1.1-5.6-3.2-7.7L251.7,341.7z M272.6,444.2
		l-24.1-24.1c-2-2-4.8-3.2-7.7-3.2c-2.9,0-5.6,1.1-7.7,3.2l-24.1,24.1v-50.9l31.7-31.7l31.7,31.7V444.2z"/>
	<path d="M325.5,360c-4.9,3.5-6,10.3-2.5,15.2c2.1,3,5.5,4.6,8.9,4.6c2.2,0,4.4-0.7,6.3-2c44.2-31.5,70.6-82.7,70.6-136.7
		c0-92.6-75.3-167.9-167.9-167.9C148.3,73.1,73,148.4,73,241c0,54.1,26.4,105.2,70.6,136.7c4.9,3.5,11.7,2.3,15.2-2.5
		c3.5-4.9,2.3-11.7-2.5-15.2c-38.5-27.5-61.5-72-61.5-119c0-80.6,65.6-146.1,146.1-146.1C321.4,94.9,387,160.4,387,241
		C387,288.1,364,332.6,325.5,360z"/>
	<path d="M240.8,145.6c-52.6,0-95.4,42.8-95.4,95.4c0,31.1,15.3,60.4,40.9,78.3c4.9,3.4,11.7,2.2,15.1-2.7
		c3.4-4.9,2.2-11.7-2.7-15.1C179,287.6,167.2,265,167.2,241c0-40.6,33-73.7,73.7-73.7c40.6,0,73.7,33,73.7,73.7
		c0,24.1-11.8,46.6-31.6,60.4c-4.9,3.4-6.1,10.2-2.7,15.1c2.1,3,5.5,4.7,8.9,4.7c2.1,0,4.3-0.6,6.2-2c25.6-17.9,40.9-47.1,40.9-78.3
		C336.2,188.4,293.4,145.6,240.8,145.6z"/>
</g>
</svg>
