<svg id="レイヤー_1" data-name="レイヤー 1" xmlns="http://www.w3.org/2000/svg" xmlns:xlink="http://www.w3.org/1999/xlink" viewBox="0 0 479.89 479.72"><defs><clipPath id="clip-path" transform="translate(-10.06 -10.14)"><rect x="10.06" y="10.14" width="479.89" height="479.72" style="fill:none"/></clipPath></defs><title>ベクトルスマートオブジェクト2</title><g style="clip-path:url(#clip-path)"><path d="M82,257.86H98a24,24,0,0,1,24-24v-16a40,40,0,0,0-40,40" transform="translate(-10.06 -10.14)"/><path d="M130,281.86H114a40,40,0,0,0,40,40v-16a24,24,0,0,1-24-24" transform="translate(-10.06 -10.14)"/><path d="M114,393.86h16a24,24,0,0,1,24-24v-16a40,40,0,0,0-40,40" transform="translate(-10.06 -10.14)"/><path d="M482.37,237.73A56,56,0,0,0,442,210.43v-8.57a72.1,72.1,0,0,0-64.38-71.58,127.83,127.83,0,0,0-255.2,0A72.1,72.1,0,0,0,58,201.86v8.57A56,56,0,0,0,37.94,314.27,47.52,47.52,0,0,0,26,345.86a48.06,48.06,0,0,0,48.12,48h.68a96.67,96.67,0,0,0,79.81,55.72A48.08,48.08,0,0,0,202,489.86a40,40,0,0,0,40-40v-24h16v24a40,40,0,0,0,40,40,48.08,48.08,0,0,0,47.38-40.29,96.67,96.67,0,0,0,79.82-55.71h.8a48.06,48.06,0,0,0,48-48A47.52,47.52,0,0,0,462,314.28a56,56,0,0,0,20.32-76.55M138.89,123.48a112,112,0,1,1,125.5,125.35l54.24-95H338v-16H274a8,8,0,0,0-7.16,4.42l-3.63,7.27L258,97.06a8,8,0,0,0-15.12-2.78l-21.82,43.58H162v16h19.36l54.24,95a111.94,111.94,0,0,1-96.7-125.35M186,345.86H314v16H186Zm117.85,32a16,16,0,0,1-13.85,8H210a16,16,0,0,1-13.85-8ZM194,321.86H306v8H194Zm-8-32H314v16H186Zm120-37.08v21.08H194V252.78a126.4,126.4,0,0,0,112,0M199.78,153.86H226a8,8,0,0,0,7.16-4.42l11.63-23.27,5.21,52.5a8,8,0,0,0,15.12,2.78l13.82-27.58h21.27L250,241.73ZM439.4,314.19a8,8,0,0,0,3.46,4.6,31.66,31.66,0,0,1-21.55,58.57,7.94,7.94,0,0,0-8.66,5A80.43,80.43,0,0,1,338,433.86a8,8,0,0,0-8,8,32,32,0,0,1-32,32,24,24,0,0,1-24-24v-24h24v-16H210v16h16v24a24,24,0,0,1-24,24,32,32,0,0,1-32-32,8,8,0,0,0-8-8,80.43,80.43,0,0,1-74.66-51.46,8.37,8.37,0,0,0-8.94-5,29.41,29.41,0,0,1-4.4.46,31.92,31.92,0,0,1-16.86-59.07,8,8,0,0,0-2.06-14.48A40,40,0,0,1,66,225.86a8,8,0,0,0,8-8v-16a56,56,0,0,1,48.43-55.42A127.94,127.94,0,0,0,178,243.61v30.26a8,8,0,0,0-8,8v32a8,8,0,0,0,8,8v8a8,8,0,0,0-8,8v32a8,8,0,0,0,8,8h1.14a32,32,0,0,0,30.86,24h80a32,32,0,0,0,30.86-24H322a8,8,0,0,0,8-8v-32a8,8,0,0,0-8-8v-8a8,8,0,0,0,8-8v-32a8,8,0,0,0-8-8V243.61a127.94,127.94,0,0,0,55.57-97.18A56,56,0,0,1,426,201.86v16a8,8,0,0,0,8,8,40,40,0,0,1,10.92,78.45,8,8,0,0,0-5.51,9.88" transform="translate(-10.06 -10.14)"/><path d="M378,217.86v16a24,24,0,0,1,24,24h16a40,40,0,0,0-40-40" transform="translate(-10.06 -10.14)"/><path d="M370,281.86a24,24,0,0,1-24,24v16a40,40,0,0,0,40-40Z" transform="translate(-10.06 -10.14)"/><path d="M346,353.86v16a24,24,0,0,1,24,24h16a40,40,0,0,0-40-40" transform="translate(-10.06 -10.14)"/><rect x="110" y="20.89" width="16" height="33.94" transform="translate(-2.27 84.38) rotate(-45)"/><rect x="71.94" y="63.72" width="32" height="16"/><rect x="375.94" y="63.72" width="32" height="16"/><rect x="365.03" y="29.86" width="33.94" height="16" transform="translate(75.06 271.06) rotate(-45)"/></g></svg>